# xmcd CD database file
#
# Track frame offsets:
#	150
#	34627
#	59314
#	71605
#	89674
#	120501
#	141583
#	162626
#	185064
#	194401
#	207172
#	227392
#	249238
#	269380
#
# Disc length: 3883 seconds
#
# Revision: 5
# Processed by: cddbd v1.5.2PL0 Copyright (c) Steve Scherf et al.
# Submitted via: CDex 1.51
#
DISCID=cf0f290e
DTITLE=THE MUSIC OF PETER GREEN - Rattlesnake Guitar
DYEAR=1995
DGENRE=Blues
TTITLE0=Oh Well(Billy Sheehan)
TTITLE1=Rattlesnake Shake(Vince Converse, Innes Sibun)
TTITLE2=Fleetwood Mac(Stu Hamm, Jonathan Mover, Larry Mitchell)
TTITLE3=Watcha Gonna Do(Zoot Money, Bobby Tench)
TTITLE4=Showbiz Blues(Rory Gallagher)
TTITLE5=Merry Go Round(Luther Grosvenor, Mike Kellie, Jess Roden)
TTITLE6=Albatross(Paul Jones, Bobby Tench, Max Middleton)
TTITLE7=Closing My Eyes(Naked Blue)
TTITLE8=Evil Woman Blues(Ray Gomez)
TTITLE9=Lazy Poker Blues(Troy Turner)
TTITLE10=Watch Out(Harvey Mandel, Jon Paris)
TTITLE11=Long Grey Mare(Harvey Mandel, Wilbur Bascomb)
TTITLE12=A Fool No More(Kim Lembo)
TTITLE13=Baby When The Sun Goes Down(Southside Johnny, The Uptown Horns)
EXTD=YEAR: 1995
EXTT0=
EXTT1=
EXTT2=
EXTT3=
EXTT4=
EXTT5=
EXTT6=
EXTT7=
EXTT8=
EXTT9=
EXTT10=
EXTT11=
EXTT12=
EXTT13=
PLAYORDER=
